<mxfile host="app.diagrams.net" modified="2021-05-13T12:08:57.879Z" agent="5.0 (Macintosh; Intel Mac OS X 11_0_1) AppleWebKit/537.36 (KHTML, like Gecko) Chrome/89.0.4389.128 Safari/537.36" etag="N88ow1xrOwNVFLnMpFqJ" version="14.6.11" type="github">
  <diagram id="ZyvHCC_fldNmMhv_airG" name="Page-1">
    <mxGraphModel dx="1141" dy="619" grid="1" gridSize="10" guides="1" tooltips="1" connect="1" arrows="1" fold="1" page="1" pageScale="1" pageWidth="827" pageHeight="1169" math="0" shadow="0">
      <root>
        <mxCell id="0" />
        <mxCell id="1" parent="0" />
        <mxCell id="V1y2JXniU2nf7dPfvBWJ-1" value="gateway" style="rounded=0;whiteSpace=wrap;html=1;" vertex="1" parent="1">
          <mxGeometry x="200" y="190" width="120" height="60" as="geometry" />
        </mxCell>
        <mxCell id="V1y2JXniU2nf7dPfvBWJ-2" value="order" style="rounded=0;whiteSpace=wrap;html=1;" vertex="1" parent="1">
          <mxGeometry x="200" y="340" width="120" height="60" as="geometry" />
        </mxCell>
        <mxCell id="V1y2JXniU2nf7dPfvBWJ-3" value="" style="ellipse;whiteSpace=wrap;html=1;aspect=fixed;" vertex="1" parent="1">
          <mxGeometry x="220" y="20" width="80" height="80" as="geometry" />
        </mxCell>
        <mxCell id="V1y2JXniU2nf7dPfvBWJ-4" value="&lt;h1&gt;特点&lt;/h1&gt;&lt;p&gt;多租户&lt;/p&gt;" style="text;html=1;strokeColor=none;fillColor=none;spacing=5;spacingTop=-20;whiteSpace=wrap;overflow=hidden;rounded=0;" vertex="1" parent="1">
          <mxGeometry x="590" y="150" width="190" height="120" as="geometry" />
        </mxCell>
        <mxCell id="V1y2JXniU2nf7dPfvBWJ-5" value="&lt;h1&gt;多租户&lt;/h1&gt;&lt;p&gt;用户注册，可以属于多个组织。&lt;/p&gt;&lt;p&gt;用户可被邀请加入组织。&lt;/p&gt;&lt;p&gt;用户可选择组织&lt;/p&gt;&lt;p&gt;用户应该属于sys，不属于tenant&lt;/p&gt;&lt;p&gt;根据token获取用户信息，&lt;span&gt;用户和租户关系在sys中。&lt;/span&gt;&lt;/p&gt;&lt;p&gt;&lt;span&gt;用户权限在租户中。&lt;/span&gt;&lt;/p&gt;&lt;p&gt;sys用户需要同步到tenant中，角色权限在tenant中设置。&lt;/p&gt;&lt;p&gt;&lt;br&gt;&lt;/p&gt;&lt;p&gt;权限控制统一设置到网关？&lt;/p&gt;&lt;p&gt;用户角色权限管理放到网关中，接口在gateway中配置？&lt;/p&gt;" style="text;html=1;strokeColor=none;fillColor=none;spacing=5;spacingTop=-20;whiteSpace=wrap;overflow=hidden;rounded=0;" vertex="1" parent="1">
          <mxGeometry x="400" y="270" width="350" height="310" as="geometry" />
        </mxCell>
      </root>
    </mxGraphModel>
  </diagram>
</mxfile>
